<svg width="89" height="81" viewBox="0 0 89 81" fill="none" xmlns="http://www.w3.org/2000/svg">
<g clip-path="url(#clip0_122_1702)">
<path d="M1.02014 66.3124C1.13396 66.3124 1.22758 66.2741 1.30101 66.1958C1.37443 66.1175 1.41298 66.0246 1.41298 65.9172C1.41298 65.8097 1.37627 65.7114 1.30101 65.6349C1.22758 65.5584 1.13396 65.522 1.02014 65.522C0.906331 65.522 0.818218 65.5602 0.74479 65.6385C0.671362 65.7168 0.632812 65.8097 0.632812 65.9172C0.632812 66.0246 0.669526 66.123 0.74479 66.1995C0.818218 66.276 0.910002 66.3124 1.02014 66.3124Z" fill="#8C9091"/>
<path d="M1.9944 66.3124C2.10454 66.3124 2.19449 66.2741 2.26608 66.1958C2.33768 66.1175 2.37439 66.0246 2.37439 65.9172C2.37439 65.8097 2.33768 65.7114 2.26608 65.6349C2.19449 65.5584 2.10271 65.522 1.9944 65.522C1.8861 65.522 1.78697 65.5602 1.71354 65.6385C1.64011 65.7168 1.60156 65.8097 1.60156 65.9172C1.60156 66.0246 1.63828 66.123 1.71354 66.1995C1.78697 66.276 1.88059 66.3124 1.9944 66.3124Z" fill="#8C9091"/>
<path d="M4.39103 68.8804H2.80499V66.8824C2.70035 66.8478 2.58287 66.8151 2.45437 66.7841C2.34055 66.7568 2.21206 66.7331 2.0652 66.7112C1.91834 66.6894 1.75864 66.6785 1.58241 66.6785C1.31257 66.6785 1.08127 66.7185 0.884848 66.8005C0.690265 66.8824 0.528723 66.9899 0.40206 67.1228C0.275397 67.2558 0.181777 67.4106 0.121199 67.5873C0.0606211 67.7639 0.03125 67.9461 0.03125 68.1355C0.03125 68.3413 0.0587854 68.527 0.115692 68.6928C0.172599 68.8585 0.262548 69.0006 0.387375 69.1171C0.512202 69.2337 0.673743 69.3229 0.873834 69.3867C1.07209 69.4504 1.3144 69.4832 1.59893 69.4832H5.16385V66.7531H4.39103V68.8785V68.8804ZM2.05419 68.8804H1.6797C1.37131 68.8804 1.14735 68.8111 1.00968 68.6745C0.871998 68.538 0.802242 68.334 0.802242 68.0681C0.802242 67.8404 0.86282 67.6528 0.983976 67.5053C1.10513 67.3578 1.27585 67.2849 1.49981 67.2849C1.58241 67.2849 1.65768 67.2904 1.7256 67.3032C1.79352 67.3141 1.8541 67.3268 1.90366 67.3378C1.9624 67.3523 2.0138 67.3705 2.05602 67.3906V68.884L2.05419 68.8804Z" fill="#8C9091"/>
<path d="M4.76003 69.9604C4.64621 69.9604 4.55259 69.9987 4.47916 70.077C4.40574 70.1553 4.36719 70.2482 4.36719 70.3557C4.36719 70.4631 4.4039 70.5615 4.47916 70.638C4.55259 70.7144 4.64621 70.7509 4.76003 70.7509C4.87384 70.7509 4.96195 70.7126 5.03538 70.6343C5.10881 70.556 5.14736 70.4631 5.14736 70.3557C5.14736 70.2482 5.11064 70.1499 5.03538 70.0734C4.96195 69.9987 4.87017 69.9604 4.76003 69.9604Z" fill="#8C9091"/>
<path d="M3.78577 69.9604C3.67563 69.9604 3.58384 69.9987 3.51041 70.077C3.43699 70.1553 3.39844 70.2482 3.39844 70.3557C3.39844 70.4631 3.43515 70.5615 3.51041 70.638C3.58384 70.7144 3.67563 70.7509 3.78577 70.7509C3.89591 70.7509 3.9877 70.7126 4.06112 70.6343C4.13455 70.556 4.1731 70.4631 4.1731 70.3557C4.1731 70.2482 4.13639 70.1499 4.06112 70.0734C3.9877 69.9987 3.89591 69.9604 3.78577 69.9604Z" fill="#8C9091"/>
<path d="M7.86259 67.4434C7.69921 67.2449 7.49545 67.0773 7.2513 66.9407C7.00715 66.806 6.72813 66.6967 6.41055 66.6147L6.22331 67.254C6.68407 67.3706 7.02368 67.5618 7.24579 67.8295C7.46608 68.0972 7.5854 68.4469 7.60559 68.8804H5.86719V69.485H8.3619V69.1007C8.3619 68.7401 8.31968 68.4251 8.23523 68.1519C8.15079 67.8787 8.0278 67.6419 7.86442 67.4434H7.86259Z" fill="#8C9091"/>
<path d="M21.9561 68.8804H20.7445C20.7518 68.7529 20.7592 68.6255 20.7647 68.498C20.7702 68.3705 20.7739 68.2485 20.7739 68.1319C20.7739 67.8423 20.7555 67.5582 20.7206 67.2832C20.6858 67.0082 20.6399 66.755 20.5866 66.5219L19.8322 66.6257C19.8836 66.8461 19.9239 67.0883 19.9551 67.3524C19.9864 67.6165 20.001 67.8915 20.001 68.1829C20.001 68.2721 19.9974 68.3814 19.9919 68.5107C19.9864 68.64 19.9753 68.7639 19.9607 68.8786H19.8083C19.6725 68.8786 19.5586 68.8713 19.4724 68.8586C19.3861 68.8458 19.3145 68.8185 19.2613 68.7766C19.208 68.7365 19.1713 68.6801 19.1493 68.6091C19.1273 68.538 19.1162 68.4433 19.1162 68.3268V66.868H18.3728V68.1811C18.3728 68.4634 18.3324 68.6582 18.2535 68.7639C18.1727 68.8695 18.057 68.9241 17.9047 68.9241C17.8147 68.9241 17.7431 68.9096 17.6917 68.8804C17.6403 68.8513 17.5981 68.8076 17.5724 68.7475C17.5449 68.6874 17.5265 68.6109 17.5173 68.5144C17.5082 68.4197 17.5027 68.3067 17.5027 68.1738V67.0993H16.7298V68.1556C16.7298 68.2995 16.7207 68.4178 16.7005 68.5107C16.6803 68.6036 16.6491 68.6764 16.6068 68.7311C16.5646 68.7857 16.5096 68.8221 16.4435 68.844C16.3774 68.8659 16.2966 68.8768 16.203 68.8768H15.6174C15.4926 68.8768 15.3769 68.864 15.2723 68.8367C15.1677 68.8094 15.0649 68.773 14.9676 68.7256C15.1658 68.5635 15.3163 68.385 15.4155 68.1938C15.5146 68.0026 15.5642 67.8077 15.5642 67.6092C15.5642 67.4817 15.5403 67.3597 15.4944 67.2468C15.4485 67.132 15.3751 67.0319 15.2741 66.9444C15.175 66.857 15.0465 66.7878 14.8905 66.735C14.7344 66.6822 14.5472 66.6567 14.3287 66.6567C14.1837 66.6567 14.035 66.6749 13.8845 66.7113C13.7321 66.7478 13.5835 66.7969 13.4366 66.857C13.2897 66.9171 13.1502 66.9863 13.0144 67.0628C12.8804 67.1411 12.7537 67.2195 12.6362 67.3014L12.572 67.8478C12.7005 67.8824 12.8198 67.9297 12.9263 67.9898C13.0346 68.0499 13.1374 68.1173 13.2365 68.1938C13.3356 68.2685 13.4311 68.3504 13.5229 68.4379C13.6147 68.5253 13.7064 68.6109 13.8001 68.6965C13.6202 68.7548 13.4182 68.7985 13.1943 68.8294C12.9703 68.8604 12.717 68.875 12.4361 68.875H11.7386V66.8771C11.6339 66.8425 11.5165 66.8097 11.388 66.7787C11.2741 66.7514 11.1456 66.7277 10.9988 66.7059C10.8519 66.684 10.6922 66.6731 10.516 66.6731C10.2462 66.6731 10.0149 66.7131 9.81844 66.7951C9.62386 66.8771 9.46232 66.9845 9.33565 67.1175C9.20899 67.2504 9.11537 67.4052 9.05479 67.5819C8.99421 67.7585 8.96484 67.9407 8.96484 68.1301C8.96484 68.3359 8.99238 68.5216 9.04929 68.6874C9.10619 68.8531 9.19614 68.9952 9.32097 69.1117C9.4458 69.2283 9.60734 69.3175 9.80743 69.3813C10.0057 69.445 10.248 69.4778 10.5325 69.4778H10.9896V69.5652C10.9896 69.8402 10.8978 70.0369 10.7124 70.1571C10.527 70.2773 10.2829 70.3374 9.97815 70.3374C9.86433 70.3374 9.75419 70.332 9.64405 70.3229C9.53391 70.3137 9.43662 70.3028 9.35217 70.2901C9.25121 70.2755 9.15576 70.2573 9.06581 70.2373L9.01808 70.8638C9.10436 70.8802 9.19798 70.8929 9.29894 70.9038C9.38522 70.9111 9.47884 70.9202 9.58347 70.9275C9.68627 70.9348 9.79458 70.9384 9.90839 70.9384C10.237 70.9384 10.516 70.9002 10.7491 70.8255C10.9804 70.7508 11.1713 70.647 11.3164 70.5141C11.4632 70.383 11.5697 70.2281 11.6376 70.0515C11.7055 69.8748 11.7404 69.6872 11.7404 69.4851V69.4742H12.3902C12.7849 69.4742 13.1429 69.4414 13.4641 69.3776C13.7854 69.3139 14.0717 69.2265 14.3214 69.1135C14.4811 69.2174 14.6573 69.3048 14.8519 69.3722C15.0447 69.4395 15.2705 69.4742 15.5275 69.4742H16.1956C16.4104 69.4742 16.5793 69.4395 16.7023 69.3722C16.8253 69.3048 16.9152 69.2028 16.974 69.0662C17.0199 69.2064 17.1153 69.3157 17.2585 69.3977C17.4017 69.4796 17.5651 69.5197 17.7542 69.5197C17.9891 69.5197 18.18 69.476 18.3287 69.3886C18.4774 69.3011 18.5802 69.1955 18.639 69.0717C18.6812 69.1536 18.7326 69.2192 18.795 69.2684C18.8556 69.3194 18.929 69.3594 19.0153 69.3904C19.1016 69.4213 19.2025 69.4432 19.32 69.4541C19.4375 69.465 19.5715 69.4723 19.7239 69.4723H22.7326V65.3782H21.9597V68.8695L21.9561 68.8804ZM10.9896 68.8804H10.6151C10.3067 68.8804 10.0828 68.8112 9.9451 68.6746C9.80743 68.538 9.73767 68.3341 9.73767 68.0682C9.73767 67.8405 9.79825 67.6529 9.9194 67.5054C10.0406 67.3579 10.2131 67.285 10.4352 67.285C10.5178 67.285 10.5931 67.2905 10.661 67.3032C10.7289 67.3142 10.7895 67.3269 10.8391 67.3378C10.8978 67.3524 10.9492 67.3706 10.9915 67.3906V68.8841L10.9896 68.8804ZM14.7014 68.0609C14.6426 68.1738 14.5509 68.2776 14.426 68.3741C14.3361 68.3013 14.248 68.2248 14.1617 68.1483C14.0754 68.07 13.9891 67.9971 13.901 67.9243C13.8129 67.8532 13.723 67.7877 13.6312 67.7276C13.5394 67.6675 13.4421 67.6165 13.3411 67.5746C13.3925 67.54 13.4531 67.5017 13.5229 67.4617C13.5926 67.4216 13.6679 67.3834 13.745 67.3488C13.8239 67.3142 13.9047 67.285 13.9873 67.2613C14.0717 67.2377 14.1525 67.2267 14.2296 67.2267C14.4169 67.2267 14.5564 67.2741 14.6482 67.3688C14.7399 67.4635 14.7858 67.5782 14.7858 67.7148C14.7858 67.835 14.7565 67.9516 14.6977 68.0627L14.7014 68.0609Z" fill="#8C9091"/>
<path d="M24.4955 65.3892H23.7227V69.4833H24.4955V65.3892Z" fill="#8C9091"/>
<path d="M28.8958 69.1189C28.8958 69.3283 28.8774 69.5031 28.8407 69.6452C28.804 69.7854 28.7508 69.9002 28.6792 69.9858C28.6094 70.0714 28.5231 70.1315 28.4222 70.1679C28.3212 70.2043 28.2056 70.2225 28.0771 70.2225C27.9761 70.2225 27.8751 70.2061 27.776 70.1734C27.6769 70.1406 27.5869 70.0823 27.5098 69.9967C27.4309 69.9111 27.3685 69.7964 27.3189 69.6507C27.2693 69.505 27.2455 69.3228 27.2455 69.1025C27.2455 68.924 27.2583 68.74 27.2859 68.5506C27.3134 68.3612 27.3538 68.1736 27.4089 67.9879L26.6122 68.1336C26.5663 68.3048 26.5296 68.4778 26.5075 68.6526C26.4837 68.8293 26.4727 69.0023 26.4727 69.1735C26.4727 69.4631 26.5094 69.7126 26.581 69.922C26.6526 70.1315 26.7572 70.3027 26.8912 70.4356C27.0252 70.5686 27.1886 70.6669 27.3795 70.7288C27.5704 70.7908 27.7833 70.8217 28.0183 70.8217C28.58 70.8217 28.9967 70.676 29.2647 70.3864C29.5346 70.0969 29.6686 69.6579 29.6686 69.0733V66.7549H28.8958V69.1189Z" fill="#8C9091"/>
<path d="M28.021 67.4798C28.1349 67.4798 28.2303 67.4416 28.3074 67.3633C28.3845 67.2849 28.4249 67.1902 28.4249 67.0791C28.4249 66.968 28.3863 66.8715 28.3074 66.795C28.2285 66.7167 28.133 66.6785 28.021 66.6785C27.9091 66.6785 27.8118 66.7167 27.7347 66.795C27.6557 66.8733 27.6172 66.968 27.6172 67.0791C27.6172 67.1902 27.6557 67.2868 27.7347 67.3633C27.8118 67.4416 27.9091 67.4798 28.021 67.4798Z" fill="#8C9091"/>
<path d="M37.7033 68.8805H36.5744V68.0154C36.5744 67.6093 36.4679 67.2851 36.255 67.0429C36.042 66.8006 35.7079 66.6804 35.2508 66.6804C34.9975 66.6804 34.7754 66.7187 34.5826 66.797C34.3917 66.8753 34.232 66.9791 34.1054 67.1103C33.9787 67.2414 33.8832 67.3926 33.8208 67.5601C33.7584 67.7295 33.7272 67.9061 33.7272 68.0919C33.7272 68.2431 33.7107 68.3706 33.6795 68.4725C33.6483 68.5745 33.6042 68.6565 33.5455 68.7166C33.4867 68.7767 33.4151 68.8186 33.3325 68.8441C33.2481 68.8696 33.1526 68.8823 33.0425 68.8823H32.8663C32.8461 68.5581 32.791 68.2722 32.6992 68.0263C32.6074 67.7805 32.4789 67.5656 32.3156 67.3816C32.1522 67.1977 31.9539 67.0447 31.7208 66.9208C31.4877 66.797 31.2215 66.6968 30.9223 66.6185L30.735 67.2578C31.1958 67.3743 31.5354 67.5656 31.7575 67.8333C31.9778 68.101 32.0971 68.4507 32.1173 68.8842H30.3789V69.4888H33.2481V69.4833C33.4629 69.4724 33.6354 69.4342 33.7603 69.3631C33.9071 69.2794 34.0081 69.1701 34.0613 69.0353C34.1127 69.1009 34.1696 69.161 34.2339 69.2156C34.2981 69.2703 34.3807 69.3176 34.4798 69.3577C34.579 69.3977 34.7001 69.4305 34.8433 69.4524C34.9865 69.4761 35.1627 69.487 35.3738 69.487H38.4762V65.3928H37.7033V68.8842V68.8805ZM35.8181 68.8805H35.3757C35.0728 68.8805 34.8507 68.8131 34.7111 68.6802C34.5716 68.5472 34.5019 68.3414 34.5019 68.0664C34.5019 67.8388 34.5625 67.6512 34.6818 67.5036C34.8029 67.3561 34.9736 67.2833 35.1939 67.2833C35.3922 67.2833 35.5464 67.3488 35.6547 67.4781C35.763 67.6075 35.8181 67.8187 35.8181 68.1083V68.8805Z" fill="#8C9091"/>
<path d="M40.2455 65.3892H39.4727V69.4833H40.2455V65.3892Z" fill="#8C9091"/>
<path d="M44.7975 69.9604C44.6873 69.9604 44.5956 69.9987 44.5221 70.077C44.4487 70.1553 44.4102 70.2482 44.4102 70.3557C44.4102 70.4631 44.4469 70.5615 44.5221 70.638C44.5956 70.7144 44.6873 70.7509 44.7975 70.7509C44.9076 70.7509 44.9994 70.7126 45.0728 70.6343C45.1463 70.556 45.1848 70.4631 45.1848 70.3557C45.1848 70.2482 45.1481 70.1499 45.0728 70.0734C44.9994 69.9987 44.9076 69.9604 44.7975 69.9604Z" fill="#8C9091"/>
<path d="M43.8287 69.9604C43.7186 69.9604 43.6268 69.9987 43.5534 70.077C43.48 70.1553 43.4414 70.2482 43.4414 70.3557C43.4414 70.4631 43.4781 70.5615 43.5534 70.638C43.6268 70.7144 43.7186 70.7509 43.8287 70.7509C43.9389 70.7509 44.0362 70.7126 44.1096 70.6343C44.183 70.556 44.2216 70.4631 44.2216 70.3557C44.2216 70.2482 44.1849 70.1499 44.1096 70.0734C44.0362 69.9987 43.9426 69.9604 43.8287 69.9604Z" fill="#8C9091"/>
<path d="M49.6499 66.2432C49.7638 66.2432 49.8592 66.205 49.9363 66.1267C50.0134 66.0502 50.0538 65.9537 50.0538 65.8426C50.0538 65.7315 50.0153 65.6349 49.9363 65.5585C49.8574 65.482 49.7619 65.4419 49.6499 65.4419C49.538 65.4419 49.4407 65.4801 49.3636 65.5585C49.2846 65.6368 49.2461 65.7315 49.2461 65.8426C49.2461 65.9537 49.2846 66.0502 49.3636 66.1267C49.4425 66.205 49.538 66.2432 49.6499 66.2432Z" fill="#8C9091"/>
<path d="M49.7266 66.6786C49.4733 66.6786 49.2512 66.7168 49.0584 66.7951C48.8675 66.8735 48.7078 66.9773 48.5812 67.1084C48.4545 67.2395 48.359 67.3907 48.2966 67.5582C48.2342 67.7276 48.203 67.9043 48.203 68.09C48.203 68.2995 48.2305 68.4707 48.2856 68.6036C48.3407 68.7366 48.4215 68.8422 48.5316 68.9205L48.4435 68.9023C48.4123 68.895 48.3774 68.8896 48.3389 68.8859C48.3003 68.8823 48.2544 68.8805 48.2048 68.8805H47.4669V67.9626C47.4669 67.7659 47.4449 67.5874 47.399 67.4289C47.3549 67.2705 47.2797 67.1357 47.1769 67.0246C47.0741 66.9135 46.9345 66.8297 46.762 66.7696C46.5876 66.7095 46.3728 66.6804 46.1158 66.6804C45.9561 66.6804 45.8056 66.6859 45.6642 66.6986C45.5229 66.7095 45.3981 66.7241 45.2898 66.7387C45.1613 66.7551 45.0438 66.7715 44.9391 66.7915V68.8823H44.539C44.2654 68.8823 44.0341 68.8586 43.8487 68.8094C43.6633 68.7603 43.5128 68.6874 43.399 68.5891C43.2852 68.4907 43.2044 68.3651 43.1548 68.2139C43.1053 68.0627 43.0814 67.8842 43.0814 67.6784C43.0814 67.5236 43.0998 67.3597 43.1347 67.1849C43.1695 67.01 43.2191 66.8552 43.2815 66.7205L42.461 66.8534C42.4187 66.9736 42.382 67.1157 42.3527 67.2796C42.3233 67.4435 42.3086 67.6056 42.3086 67.764C42.3086 68.0318 42.3453 68.2703 42.4206 68.4816C42.494 68.6929 42.617 68.8732 42.7859 69.0207C42.9548 69.17 43.1769 69.2848 43.4504 69.3631C43.7239 69.4414 44.0598 69.4815 44.4582 69.4815H45.6826V67.3142C45.7212 67.3106 45.7634 67.3051 45.8056 67.296C45.8405 67.2923 45.8809 67.2887 45.9249 67.2851C45.969 67.2814 46.0167 67.2796 46.0681 67.2796C46.3104 67.2796 46.4793 67.336 46.5747 67.4508C46.6702 67.5655 46.7179 67.7622 46.7179 68.0409V69.4815H51.0502V68.0117C51.0502 67.6056 50.9437 67.2814 50.7308 67.0392C50.5178 66.797 50.1837 66.6768 49.7266 66.6768V66.6786ZM50.2939 68.8805H49.8496C49.5449 68.8805 49.3228 68.8131 49.1814 68.6801C49.0401 68.5472 48.9703 68.3414 48.9703 68.0664C48.9703 67.8387 49.0309 67.6511 49.1521 67.5036C49.2732 67.3561 49.4458 67.2832 49.6679 67.2832C49.8662 67.2832 50.0203 67.3488 50.1305 67.4781C50.2406 67.6074 50.2939 67.8187 50.2939 68.1083V68.8805Z" fill="#8C9091"/>
<path d="M53.8493 69.5433C53.8493 69.7018 53.8346 69.8329 53.8052 69.9349C53.7758 70.0369 53.7354 70.1207 53.6822 70.1844C53.629 70.2481 53.5629 70.2919 53.484 70.3174C53.4032 70.3428 53.3151 70.3556 53.2178 70.3556C53.1205 70.3556 53.0397 70.3483 52.9626 70.3356C52.8855 70.3228 52.8139 70.3064 52.7423 70.2864L52.6836 70.902C52.7534 70.922 52.8305 70.9366 52.9149 70.9457C52.9993 70.9548 53.0856 70.9603 53.1756 70.9603C53.4729 70.9603 53.7134 70.9202 53.9007 70.8382C54.0879 70.7563 54.2348 70.6488 54.3431 70.5122C54.4514 70.3775 54.523 70.2227 54.5633 70.0478C54.6019 69.873 54.6221 69.6927 54.6221 69.5069V66.7532H53.8493V69.5433Z" fill="#6ABF4B"/>
<path d="M61.8359 65.9172C61.8359 66.0301 61.8726 66.123 61.9479 66.1995C62.0213 66.276 62.1131 66.3124 62.2233 66.3124C62.3334 66.3124 62.4252 66.2741 62.4986 66.1958C62.572 66.1175 62.6106 66.0246 62.6106 65.9172C62.6106 65.8097 62.5739 65.7114 62.4986 65.6349C62.4252 65.5584 62.3334 65.522 62.2233 65.522C62.1131 65.522 62.0213 65.5602 61.9479 65.6385C61.8745 65.7168 61.8359 65.8097 61.8359 65.9172Z" fill="#6ABF4B"/>
<path d="M61.733 65.4875C61.8339 65.4875 61.9202 65.4511 61.9881 65.3801C62.056 65.309 62.0909 65.2216 62.0909 65.1214C62.0909 65.0213 62.056 64.9339 61.9881 64.8628C61.9202 64.7918 61.8358 64.7554 61.733 64.7554C61.6302 64.7554 61.5457 64.7918 61.4778 64.8628C61.4099 64.9339 61.375 65.0213 61.375 65.1214C61.375 65.2216 61.4099 65.3072 61.4778 65.3801C61.5457 65.4511 61.6302 65.4875 61.733 65.4875Z" fill="#6ABF4B"/>
<path d="M61.2506 66.3124C61.3644 66.3124 61.458 66.2741 61.5315 66.1958C61.6049 66.1175 61.6435 66.0246 61.6435 65.9172C61.6435 65.8097 61.6067 65.7114 61.5315 65.6349C61.458 65.5584 61.3644 65.522 61.2506 65.522C61.1368 65.522 61.0487 65.5602 60.9753 65.6385C60.9018 65.7168 60.8633 65.8097 60.8633 65.9172C60.8633 66.0246 60.9 66.123 60.9753 66.1995C61.0487 66.276 61.1405 66.3124 61.2506 66.3124Z" fill="#6ABF4B"/>
<path d="M64.2975 66.3124C64.4076 66.3124 64.4994 66.2741 64.5728 66.1958C64.6463 66.1175 64.6848 66.0246 64.6848 65.9172C64.6848 65.8097 64.6481 65.7114 64.5728 65.6349C64.4994 65.5584 64.4076 65.522 64.2975 65.522C64.1873 65.522 64.0956 65.5602 64.0221 65.6385C63.9487 65.7168 63.9102 65.8097 63.9102 65.9172C63.9102 66.0246 63.9469 66.123 64.0221 66.1995C64.0956 66.276 64.1873 66.3124 64.2975 66.3124Z" fill="#6ABF4B"/>
<path d="M63.3287 66.3124C63.4426 66.3124 63.5362 66.2741 63.6096 66.1958C63.683 66.1175 63.7216 66.0246 63.7216 65.9172C63.7216 65.8097 63.6849 65.7114 63.6096 65.6349C63.5362 65.5584 63.4426 65.522 63.3287 65.522C63.2149 65.522 63.1268 65.5602 63.0534 65.6385C62.98 65.7168 62.9414 65.8097 62.9414 65.9172C62.9414 66.0246 62.9781 66.123 63.0534 66.1995C63.1268 66.276 63.2186 66.3124 63.3287 66.3124Z" fill="#6ABF4B"/>
<path d="M69.4234 66.5218L68.6689 66.6257C68.7203 66.846 68.7607 67.0883 68.7919 67.3523C68.8231 67.6164 68.8378 67.8914 68.8378 68.1828C68.8378 68.2721 68.8341 68.3813 68.8286 68.5106C68.8231 68.64 68.8121 68.7638 68.7974 68.8785H68.645C68.5092 68.8785 68.3954 68.8713 68.3091 68.8585C68.2228 68.8458 68.1512 68.8184 68.098 68.7765C68.0448 68.7347 68.008 68.68 67.986 68.609C67.964 68.538 67.953 68.4433 67.953 68.3267V66.8679H67.2095V68.181C67.2095 68.4633 67.1691 68.6582 67.0902 68.7638C67.0094 68.8694 66.8938 68.9241 66.7414 68.9241C66.6515 68.9241 66.5799 68.9095 66.5285 68.8804C66.4771 68.8512 66.4349 68.8075 66.4092 68.7474C66.3816 68.6873 66.3633 68.6108 66.3541 68.5143C66.3449 68.4196 66.3394 68.3067 66.3394 68.1737V67.0992H65.5666V68.1555C65.5666 68.2994 65.5574 68.4178 65.5372 68.5106C65.517 68.6035 65.4858 68.6764 65.4436 68.731C65.4014 68.7857 65.3463 68.8221 65.2802 68.8439C65.2141 68.8658 65.1333 68.8767 65.0397 68.8767H64.3128V66.7513H63.54V68.8767H62.2348V66.7513H61.462V68.8767H60.2394V68.0116C60.2394 67.6055 60.1329 67.2813 59.92 67.0391C59.707 66.7969 59.3729 66.6767 58.9158 66.6767C58.6625 66.6767 58.4404 66.7149 58.2476 66.7932C58.0567 66.8715 57.897 66.9753 57.7704 67.1065C57.6437 67.2376 57.5483 67.3888 57.4858 67.5563C57.4234 67.7257 57.3922 67.9023 57.3922 68.0881C57.3922 68.2393 57.3757 68.3668 57.3445 68.4688C57.3133 68.5707 57.2692 68.6527 57.2105 68.7128C57.1517 68.7729 57.0801 68.8148 56.9975 68.8403C56.9131 68.8658 56.8176 68.8785 56.7075 68.8785H56.3275V65.3872H55.5547V69.4814H56.9131V69.4759C57.1279 69.465 57.3004 69.4267 57.4253 69.3557C57.5721 69.2719 57.6731 69.1627 57.7263 69.0279C57.7777 69.0934 57.8346 69.1535 57.8989 69.2082C57.9631 69.2628 58.0457 69.3102 58.1449 69.3502C58.244 69.3903 58.3651 69.4231 58.5083 69.4449C58.6515 69.4686 58.8277 69.4795 59.0388 69.4795H65.0342C65.249 69.4795 65.4179 69.4449 65.5409 69.3776C65.6639 69.3102 65.7538 69.2082 65.8126 69.0716C65.8584 69.2118 65.9539 69.3211 66.0971 69.4031C66.2403 69.485 66.4036 69.5251 66.5927 69.5251C66.8277 69.5251 67.0186 69.4814 67.1673 69.3939C67.316 69.3065 67.4188 69.2009 67.4775 69.0771C67.5197 69.159 67.5711 69.2246 67.6336 69.2737C67.6941 69.3247 67.7676 69.3648 67.8538 69.3958C67.9401 69.4267 68.0411 69.4486 68.1586 69.4595C68.2761 69.4704 68.4101 69.4777 68.5624 69.4777H69.528C69.5592 69.2683 69.5812 69.0443 69.5959 68.8039C69.6088 68.5635 69.6161 68.3376 69.6161 68.1245C69.6161 67.835 69.5978 67.5509 69.5629 67.2758C69.528 67.0008 69.4821 66.7477 69.4289 66.5146L69.4234 66.5218ZM59.4831 68.8804H59.0407C58.7378 68.8804 58.5157 68.813 58.3761 68.68C58.2366 68.5471 58.1669 68.3413 58.1669 68.0663C58.1669 67.8386 58.2275 67.651 58.3468 67.5035C58.4679 67.356 58.6387 67.2831 58.8589 67.2831C59.0572 67.2831 59.2114 67.3487 59.3197 67.478C59.428 67.6073 59.4831 67.8186 59.4831 68.1081V68.8804Z" fill="#6ABF4B"/>
<path d="M71.8181 68.4452L70.9626 65.3491L70.1953 65.4529L71.0324 68.4452H71.8181Z" fill="#6ABF4B"/>
<path d="M72.2457 68.8805H70.4375V69.4851H73.0185V65.3892H72.2457V68.8805Z" fill="#6ABF4B"/>
<path d="M74.7806 65.3892H74.0078V69.4833H74.7806V65.3892Z" fill="#6ABF4B"/>
<path d="M78.7405 66.3124C78.8506 66.3124 78.9406 66.2741 79.0122 66.1958C79.0838 66.1175 79.1205 66.0246 79.1205 65.9172C79.1205 65.8097 79.0838 65.7114 79.0122 65.6349C78.9406 65.5584 78.8488 65.522 78.7405 65.522C78.6322 65.522 78.5331 65.5602 78.4596 65.6385C78.3862 65.7168 78.3477 65.8097 78.3477 65.9172C78.3477 66.0246 78.3844 66.123 78.4596 66.1995C78.5331 66.276 78.6267 66.3124 78.7405 66.3124Z" fill="#8C9091"/>
<path d="M77.7662 66.3124C77.8801 66.3124 77.9737 66.2741 78.0471 66.1958C78.1205 66.1175 78.1591 66.0246 78.1591 65.9172C78.1591 65.8097 78.1224 65.7114 78.0471 65.6349C77.9737 65.5584 77.8801 65.522 77.7662 65.522C77.6524 65.522 77.5643 65.5602 77.4909 65.6385C77.4175 65.7168 77.3789 65.8097 77.3789 65.9172C77.3789 66.0246 77.4156 66.123 77.4909 66.1995C77.5643 66.276 77.6561 66.3124 77.7662 66.3124Z" fill="#8C9091"/>
<path d="M80.8101 69.9548C80.6963 69.9548 80.6008 69.9931 80.5237 70.0714C80.4448 70.1497 80.4062 70.2444 80.4062 70.3555C80.4062 70.4666 80.4448 70.5631 80.5237 70.6396C80.6027 70.7179 80.6981 70.7562 80.8101 70.7562C80.9221 70.7562 81.0194 70.7179 81.0965 70.6396C81.1736 70.5613 81.214 70.4666 81.214 70.3555C81.214 70.2444 81.1754 70.1479 81.0965 70.0714C81.0175 69.9949 80.9221 69.9548 80.8101 69.9548Z" fill="#8C9091"/>
<path d="M80.8563 68.8804H79.5511V66.8824C79.4464 66.8478 79.329 66.8151 79.2005 66.7841C79.0867 66.7568 78.9581 66.7331 78.8113 66.7112C78.6644 66.6894 78.5047 66.6785 78.3285 66.6785C78.0587 66.6785 77.8274 66.7185 77.6309 66.8005C77.4364 66.8824 77.2748 66.9899 77.1482 67.1228C77.0215 67.2558 76.9279 67.4106 76.8673 67.5873C76.8067 67.7639 76.7773 67.9461 76.7773 68.1355C76.7773 68.3413 76.8049 68.527 76.8618 68.6928C76.9187 68.8585 77.0086 69.0006 77.1335 69.1171C77.2583 69.2337 77.4198 69.3229 77.6199 69.3867C77.8182 69.4504 78.0605 69.4832 78.345 69.4832H81.6291V66.7531H80.8563V68.8785V68.8804ZM78.8021 68.8804H78.4276C78.1192 68.8804 77.8953 68.8111 77.7576 68.6745C77.6199 68.538 77.5502 68.334 77.5502 68.0681C77.5502 67.8404 77.6108 67.6528 77.7319 67.5053C77.8531 67.3578 78.0238 67.2849 78.2477 67.2849C78.3303 67.2849 78.4056 67.2904 78.4735 67.3032C78.5414 67.3141 78.602 67.3268 78.6516 67.3378C78.7103 67.3523 78.7617 67.3705 78.804 67.3906V68.884L78.8021 68.8804Z" fill="#8C9091"/>
<path d="M83.3314 65.3892H82.5586V69.4833H83.3314V65.3892Z" fill="#8C9091"/>
<path d="M88.2274 66.755V68.8804H86.9222V66.8824C86.8175 66.8478 86.7001 66.8151 86.5716 66.7841C86.4577 66.7568 86.3292 66.7331 86.1824 66.7112C86.0355 66.6894 85.8758 66.6785 85.6996 66.6785C85.4298 66.6785 85.1985 66.7185 85.002 66.8005C84.8075 66.8824 84.6459 66.9899 84.5193 67.1228C84.3926 67.2558 84.299 67.4106 84.2384 67.5873C84.1778 67.7639 84.1484 67.9461 84.1484 68.1355C84.1484 68.3413 84.176 68.527 84.2329 68.6928C84.2898 68.8585 84.3797 69.0006 84.5046 69.1171C84.6294 69.2337 84.7909 69.3229 84.991 69.3867C85.1911 69.4504 85.4316 69.4832 85.7161 69.4832H86.1732V69.5706C86.1732 69.8456 86.0814 70.0423 85.896 70.1625C85.7106 70.2827 85.4665 70.3428 85.1617 70.3428C85.0479 70.3428 84.9378 70.3373 84.8276 70.3282C84.7175 70.3191 84.6202 70.3082 84.5358 70.2955C84.4348 70.2809 84.3394 70.2627 84.2494 70.2426L84.2017 70.8691C84.288 70.8855 84.3816 70.8983 84.4825 70.9092C84.5688 70.9165 84.6624 70.9256 84.7671 70.9329C84.8699 70.9402 84.9782 70.9438 85.092 70.9438C85.4206 70.9438 85.6996 70.9056 85.9327 70.8309C86.164 70.7562 86.3549 70.6524 86.5 70.5195C86.6468 70.3883 86.7533 70.2335 86.8212 70.0569C86.8891 69.8802 86.924 69.6926 86.924 69.4905V69.4795H89.002V66.7495H88.2292L88.2274 66.755ZM86.1732 68.8804H85.7987C85.4903 68.8804 85.2664 68.8111 85.1287 68.6745C84.991 68.538 84.9213 68.334 84.9213 68.0681C84.9213 67.8404 84.9818 67.6528 85.103 67.5053C85.2242 67.3578 85.3967 67.2849 85.6188 67.2849C85.7014 67.2849 85.7767 67.2904 85.8446 67.3032C85.9125 67.3141 85.9731 67.3268 86.0227 67.3378C86.0814 67.3523 86.1328 67.3705 86.175 67.3906V68.884L86.1732 68.8804Z" fill="#8C9091"/>
<path d="M88.1812 69.9548C88.0674 69.9548 87.9719 69.9931 87.8948 70.0714C87.8159 70.1497 87.7773 70.2444 87.7773 70.3555C87.7773 70.4666 87.8159 70.5631 87.8948 70.6396C87.9738 70.7179 88.0692 70.7562 88.1812 70.7562C88.2932 70.7562 88.3905 70.7179 88.4676 70.6396C88.5465 70.5613 88.585 70.4666 88.585 70.3555C88.585 70.2444 88.5465 70.1479 88.4676 70.0714C88.3886 69.9931 88.2932 69.9548 88.1812 69.9548Z" fill="#8C9091"/>
<path d="M83.0047 9.41677V2.31391V0.536377H76.3044V2.62352L75.526 3.51229V16.4759H72.4072V8.3222L70.6541 6.35161H69.1745V4.49758H64.7689V23.2564H60.4311V10.7317H52.4146V17.3264H43.8328V9.00699L42.2357 6.99815H36.9287V11.9192H29.34V3.12437H27.3537V0.536377H21.3951V16.4541H16.8646V14.7148H14.1863V8.73744H11.1611L10.1496 7.0364H6.60487V8.62088H5.78799V17.3155H0.03125V18.6669H1.35479H7.15008V9.97407H7.9688V8.38958H9.36943L10.3827 10.0888H12.8224V16.068H15.5007V17.8455H22.7572V1.88956H25.9898V4.47755H27.976V13.2705H36.9287V17.8783H38.2908V8.35134H41.573L42.4688 9.4714V17.3264V18.6796H43.8328H52.4146H53.7786V17.3264V12.0831H59.1076V24.6096H66.1713V5.84895H67.8492V7.70297H70.0704L71.0818 8.82486V17.8273H76.9285V4.01313L77.7068 3.12437V1.88956H81.6407V3.62703V10.7299H87.638H89.0019V9.41677H83.0047Z" fill="url(#paint0_linear_122_1702)"/>
<path d="M42.7665 54.6528H0.0664062V55.3431H42.7665V54.6528Z" fill="#8C9091"/>
<path d="M89.0017 54.6528H58.3438V55.3431H89.0017V54.6528Z" fill="#8C9091"/>
<path d="M77.9998 30.5886C75.4261 30.5886 73.5189 31.2643 72.2779 32.6175C71.0352 33.9689 70.4147 35.923 70.4147 38.4746V43.3647H56.4891V30.5886H52.6103V46.8523C52.6103 48.3439 52.2633 49.5241 51.5695 50.3965C50.8756 51.2689 49.7888 51.7041 48.3129 51.7041H47.1289V55.343H48.6195C51.2555 55.343 53.2197 54.6127 54.5139 53.1538C55.6869 51.8298 56.3331 49.9903 56.4616 47.6519L54.5653 46.927H89.0011V30.5886H78.0016H77.9998ZM85.0837 43.3647H74.2935V38.8352C74.2935 37.2562 74.6533 36.0833 75.3729 35.3184C76.0925 34.5535 77.2417 34.171 78.8222 34.171H85.0837V42.6343L86.9947 43.3647H85.0837Z" fill="#007473"/>
<path d="M84.7057 23.0615H80.8984V26.8388H84.7057V23.0615Z" fill="#007473"/>
<path d="M40.4055 30.5888H19.0601V43.3448H8.43873C6.8582 43.3448 5.70905 42.9624 4.98946 42.1975C4.26987 41.4325 3.91007 40.2615 3.91007 38.6806V34.8797L1.99912 34.1494H8.52134V30.5852H0.03125V39.0394C0.03125 41.591 0.651715 43.5434 1.89448 44.8965C3.13541 46.2479 5.0427 46.9254 7.61634 46.9254H47.8952V38.2435C47.8952 33.1386 45.3986 30.5852 40.4055 30.5852V30.5888ZM44.0163 43.3649H25.6227V43.3467H22.9371V34.1731H39.5079C41.0737 34.1731 42.2174 34.5264 42.937 35.2348C43.6565 35.9433 44.0163 37.0233 44.0163 38.4767V42.6455L45.9053 43.3667H44.0163V43.3649Z" fill="#007473"/>
<path d="M0.721428 77.0559V78.0084H1.93299V78.5985H0.721428V80.1629H0V76.4421H2.00458V77.0541H0.721428V77.0559Z" fill="#8C9091"/>
<path d="M5.14048 79.8553C4.86879 80.1011 4.48513 80.225 3.99317 80.225C3.69762 80.225 3.45531 80.1886 3.26807 80.1139C3.08083 80.041 2.93397 79.9409 2.82567 79.817C2.71736 79.6932 2.64393 79.5475 2.60355 79.3836C2.56316 79.2197 2.54297 79.0503 2.54297 78.8736V76.4441H3.2644V78.8299C3.2644 78.9483 3.27541 79.0558 3.29744 79.1523C3.31947 79.2506 3.35985 79.3344 3.42043 79.4054C3.47917 79.4765 3.55994 79.5311 3.65907 79.5712C3.76003 79.6094 3.8867 79.6294 4.04273 79.6294C4.31992 79.6294 4.52185 79.5639 4.64484 79.4346C4.76967 79.3034 4.83024 79.0813 4.83024 78.7644V76.4441H5.54617V78.7206C5.54617 79.2306 5.41032 79.6094 5.13864 79.8553H5.14048Z" fill="#8C9091"/>
<path d="M8.20363 80.1648L7.19216 78.6276H7.13158V80.1648H6.41016V76.444C6.55885 76.4367 6.72039 76.4312 6.89662 76.4276C7.07284 76.4239 7.26926 76.4221 7.48771 76.4221C7.69514 76.4221 7.88238 76.4421 8.04943 76.4804C8.21648 76.5186 8.35783 76.5787 8.47715 76.6625C8.59647 76.7445 8.68642 76.8519 8.7525 76.9849C8.81675 77.1178 8.8498 77.2781 8.8498 77.4693C8.8498 77.6096 8.82593 77.7371 8.78004 77.8518C8.73415 77.9665 8.6699 78.0703 8.58546 78.1596C8.50285 78.2488 8.40372 78.3235 8.29174 78.3836C8.17793 78.4419 8.05677 78.4838 7.92828 78.5056C7.97968 78.5766 8.03108 78.644 8.08431 78.7132C8.13571 78.7806 8.18344 78.848 8.22933 78.9136L9.10129 80.1648H8.2073H8.20363ZM8.09165 77.5422C8.09165 77.1852 7.86586 77.0086 7.41428 77.0086C7.36288 77.0086 7.31148 77.0086 7.26192 77.0122C7.21236 77.014 7.1683 77.0177 7.13158 77.0268V78.1013C7.15728 78.1049 7.194 78.1086 7.23989 78.1086C7.28578 78.1104 7.33718 78.1122 7.39225 78.1122C7.6107 78.1122 7.78142 78.0612 7.90625 77.9611C8.03108 77.8609 8.09165 77.7207 8.09165 77.5458V77.5422Z" fill="#8C9091"/>
<path d="M11.7748 80.1649L11.5196 79.4036H10.097L9.83631 80.1649H9.10938L10.4035 76.4441H11.2535L12.5752 80.1649H11.7748ZM10.9524 77.7244C10.923 77.6334 10.8955 77.5459 10.8698 77.4622C10.8441 77.3784 10.8221 77.2964 10.8037 77.2108H10.7982C10.7762 77.2946 10.7542 77.3784 10.7321 77.4622C10.7101 77.5441 10.6844 77.6315 10.655 77.7244L10.2714 78.8317H11.3379L10.9542 77.7244H10.9524Z" fill="#8C9091"/>
<path d="M15.1766 79.0248C15.1766 79.1979 15.1418 79.3581 15.072 79.5038C15.0022 79.6513 14.9031 79.777 14.7783 79.8845C14.6516 79.9919 14.4993 80.0739 14.3194 80.1358C14.1395 80.1959 13.9431 80.2269 13.7283 80.2269C13.3979 80.2269 13.1096 80.1941 12.8618 80.1267L12.9389 79.4383C13.0582 79.4893 13.1849 79.5293 13.3226 79.5566C13.4603 79.584 13.6035 79.5985 13.7558 79.5985C13.8403 79.5985 13.921 79.5894 13.9981 79.5712C14.0734 79.553 14.1413 79.5239 14.1982 79.4856C14.2551 79.4474 14.301 79.3982 14.3341 79.3363C14.3671 79.2762 14.3836 79.2015 14.3836 79.1123C14.3836 78.9939 14.3451 78.901 14.268 78.8318C14.1909 78.7626 14.0936 78.7007 13.9761 78.6497C13.8586 78.5987 13.7319 78.5477 13.5961 78.4985C13.4584 78.4493 13.3318 78.3856 13.2161 78.3054C13.0986 78.2271 13.0013 78.1251 12.9242 77.9995C12.8471 77.8738 12.8086 77.7099 12.8086 77.5041C12.8086 77.3384 12.8398 77.1872 12.9022 77.0488C12.9646 76.9104 13.0564 76.7938 13.1776 76.6955C13.2987 76.5971 13.4456 76.5225 13.6218 76.466C13.798 76.4114 13.9981 76.384 14.2239 76.384C14.3267 76.384 14.4387 76.3895 14.5598 76.4022C14.681 76.415 14.7948 76.4332 14.9013 76.4551L14.8352 77.0834C14.7324 77.0506 14.6259 77.0251 14.5195 77.0069C14.413 76.9887 14.3028 76.9796 14.1927 76.9796C13.9816 76.9796 13.8256 77.0215 13.7264 77.1034C13.6255 77.1854 13.5759 77.2928 13.5759 77.4258C13.5759 77.5351 13.6163 77.6243 13.6952 77.6935C13.7742 77.7609 13.8733 77.821 13.9926 77.872C14.1119 77.923 14.2404 77.9758 14.3781 78.0286C14.5176 78.0814 14.6461 78.1506 14.7636 78.2326C14.8829 78.3146 14.9821 78.4202 15.061 78.544C15.1399 78.6697 15.1803 78.8281 15.1803 79.023L15.1766 79.0248Z" fill="#8C9091"/>
<path d="M17.0938 80.5365V75.9834H17.661V80.5365H17.0938Z" fill="#8C9091"/>
<path d="M21.993 79.0248C21.993 79.1979 21.9582 79.3581 21.8884 79.5038C21.8187 79.6513 21.7195 79.777 21.5947 79.8845C21.468 79.9919 21.3157 80.0739 21.1358 80.1358C20.9559 80.1959 20.7595 80.2269 20.5447 80.2269C20.2143 80.2269 19.9261 80.1941 19.6782 80.1267L19.7553 79.4383C19.8747 79.4893 20.0013 79.5293 20.139 79.5566C20.2767 79.584 20.4199 79.5985 20.5722 79.5985C20.6567 79.5985 20.7374 79.5894 20.8145 79.5712C20.8898 79.553 20.9577 79.5239 21.0146 79.4856C21.0715 79.4474 21.1174 79.3982 21.1505 79.3363C21.1835 79.2762 21.2 79.2015 21.2 79.1123C21.2 78.9939 21.1615 78.901 21.0844 78.8318C21.0073 78.7626 20.91 78.7007 20.7925 78.6497C20.675 78.5987 20.5484 78.5477 20.4125 78.4985C20.2748 78.4493 20.1482 78.3856 20.0325 78.3054C19.915 78.2271 19.8177 78.1251 19.7406 77.9995C19.6635 77.8738 19.625 77.7099 19.625 77.5041C19.625 77.3384 19.6562 77.1872 19.7186 77.0488C19.781 76.9104 19.8728 76.7938 19.994 76.6955C20.1151 76.5971 20.262 76.5225 20.4382 76.466C20.6144 76.4114 20.8145 76.384 21.0403 76.384C21.1431 76.384 21.2551 76.3895 21.3763 76.4022C21.4974 76.415 21.6112 76.4332 21.7177 76.4551L21.6516 77.0834C21.5488 77.0506 21.4423 77.0251 21.3359 77.0069C21.2294 76.9887 21.1193 76.9796 21.0091 76.9796C20.798 76.9796 20.642 77.0215 20.5428 77.1034C20.4419 77.1854 20.3923 77.2928 20.3923 77.4258C20.3923 77.5351 20.4327 77.6243 20.5116 77.6935C20.5906 77.7609 20.6897 77.821 20.809 77.872C20.9283 77.923 21.0568 77.9758 21.1945 78.0286C21.334 78.0814 21.4625 78.1506 21.58 78.2326C21.6993 78.3146 21.7985 78.4202 21.8774 78.544C21.9563 78.6697 21.9967 78.8281 21.9967 79.023L21.993 79.0248Z" fill="#8C9091"/>
<path d="M24.0526 80.1647C24.0526 80.0846 24.0545 80.0044 24.0581 79.928C24.0618 79.8515 24.0692 79.775 24.0802 79.7021L24.0747 79.6967C24.0086 79.8515 23.8966 79.9771 23.7387 80.0737C23.5809 80.1702 23.3991 80.2193 23.1917 80.2193C22.9402 80.2193 22.7456 80.1447 22.6079 79.9953C22.4703 79.846 22.4023 79.6602 22.4023 79.4362C22.4023 79.2741 22.4409 79.1339 22.5162 79.0137C22.5914 78.8935 22.6997 78.7951 22.8374 78.7168C22.9769 78.6385 23.144 78.5784 23.3404 78.5402C23.5368 78.5019 23.7553 78.4819 23.9957 78.4819V78.3817C23.9957 78.216 23.959 78.0958 23.8874 78.0175C23.8158 77.941 23.6873 77.9027 23.5019 77.9027C23.3753 77.9027 23.2357 77.9209 23.0834 77.9574C22.9292 77.9938 22.7915 78.0375 22.6704 78.0903L22.5547 77.5494C22.6961 77.4948 22.8576 77.4492 23.0412 77.4146C23.2247 77.38 23.4101 77.3618 23.5992 77.3618C23.814 77.3618 23.9921 77.3837 24.1352 77.4256C24.2784 77.4674 24.3922 77.5294 24.4767 77.6131C24.5611 77.6951 24.6217 77.7971 24.6566 77.9155C24.6915 78.0357 24.7098 78.1723 24.7098 78.3271V79.4562C24.7098 79.5655 24.7098 79.6839 24.7153 79.8059C24.719 79.9298 24.7245 80.0482 24.7318 80.1611H24.0545L24.0526 80.1647ZM23.9976 78.9463C23.8195 78.9463 23.6708 78.9572 23.5533 78.9773C23.434 78.9973 23.3404 79.0264 23.2725 79.0629C23.2045 79.0993 23.155 79.143 23.1274 79.1958C23.0999 79.2486 23.0852 79.3033 23.0852 79.3615C23.0852 79.449 23.1146 79.5255 23.1733 79.5874C23.2321 79.6493 23.3147 79.6821 23.4175 79.6821C23.5019 79.6821 23.5809 79.6621 23.6543 79.6238C23.7277 79.5856 23.7883 79.5364 23.8379 79.4745C23.8874 79.4144 23.926 79.3433 23.9553 79.265C23.9829 79.1867 23.9976 79.1047 23.9976 79.0192V78.9481V78.9463Z" fill="#8C9091"/>
<path d="M27.2191 80.1649C27.2191 80.103 27.2209 80.0229 27.2246 79.9282C27.2283 79.8316 27.2375 79.7479 27.2521 79.675H27.2466C27.1622 79.8371 27.041 79.9682 26.885 80.0684C26.729 80.1686 26.5362 80.2196 26.3068 80.2196C26.1507 80.2196 26.0204 80.1959 25.9158 80.1504C25.8111 80.1048 25.7267 80.0411 25.6624 79.9628C25.6 79.8845 25.5541 79.7916 25.5266 79.6878C25.4991 79.584 25.4844 79.471 25.4844 79.349V77.4258H26.1893V79.1778C26.1893 79.3181 26.2131 79.4273 26.2609 79.5093C26.3086 79.5894 26.4004 79.6313 26.5326 79.6313C26.6207 79.6313 26.7051 79.6076 26.7822 79.5603C26.8593 79.5129 26.9272 79.4492 26.9841 79.3709C27.041 79.2926 27.0869 79.1997 27.12 79.0922C27.153 78.9848 27.1695 78.8719 27.1695 78.7498V77.4276H27.88V80.1668H27.2136L27.2191 80.1649Z" fill="#8C9091"/>
<path d="M30.315 80.1648C30.315 80.0993 30.3187 80.0246 30.3242 79.9408C30.3297 79.8571 30.3389 79.7806 30.3499 79.7059H30.3389C30.2654 79.8607 30.1534 79.9845 30.0048 80.0811C29.8561 80.1758 29.678 80.2249 29.4669 80.2249C29.1291 80.2249 28.8776 80.1084 28.7106 79.8771C28.5435 79.6458 28.4609 79.3344 28.4609 78.941C28.4609 78.7097 28.494 78.4984 28.5601 78.3072C28.6261 78.1159 28.7216 77.952 28.8464 77.8136C28.9713 77.6752 29.1236 77.5678 29.3054 77.4913C29.4871 77.4148 29.6927 77.3747 29.9221 77.3747C29.9809 77.3747 30.0396 77.3765 30.0947 77.3802C30.1498 77.3838 30.2104 77.3893 30.2728 77.3966V76.1399H30.9777V80.163H30.3168L30.315 80.1648ZM30.2709 77.9775C30.2085 77.963 30.1461 77.952 30.0855 77.9447C30.0249 77.9375 29.9625 77.9338 29.9001 77.9338C29.6964 77.9338 29.5293 78.0049 29.4008 78.1469C29.2705 78.289 29.2062 78.5275 29.2062 78.8663C29.2062 79.3835 29.3641 79.644 29.678 79.644C29.7698 79.644 29.8542 79.6185 29.9277 79.5693C30.0011 79.5201 30.0635 79.4546 30.1131 79.3708C30.1626 79.2888 30.2012 79.1923 30.2305 79.0848C30.2581 78.9774 30.2728 78.8645 30.2728 78.7461V77.9794L30.2709 77.9775Z" fill="#8C9091"/>
<path d="M32.5509 76.5933C32.5509 76.7116 32.5069 76.81 32.4206 76.8938C32.3343 76.9757 32.2297 77.0176 32.1067 77.0176C31.9837 77.0176 31.8809 76.9757 31.7965 76.8938C31.712 76.8118 31.668 76.7116 31.668 76.5933C31.668 76.4749 31.7102 76.3747 31.7965 76.2891C31.8827 76.2035 31.9855 76.1616 32.1067 76.1616C32.2279 76.1616 32.3343 76.2035 32.4206 76.2855C32.5069 76.3674 32.5509 76.4694 32.5509 76.5914V76.5933ZM31.7506 80.1647V77.4256H32.461V80.1647H31.7506Z" fill="#8C9091"/>
<path d="M36.5164 80.1612C36.3494 80.1922 36.1768 80.2085 36.0006 80.2085C35.6702 80.2085 35.3966 80.1594 35.1764 80.0592C34.9561 79.959 34.778 79.8279 34.644 79.6622C34.5082 79.4964 34.4127 79.307 34.3558 79.0921C34.2989 78.8772 34.2695 78.6532 34.2695 78.4219C34.2695 78.1287 34.3081 77.8573 34.387 77.6114C34.4641 77.3656 34.5816 77.1525 34.7376 76.974C34.8937 76.7955 35.0883 76.6571 35.3232 76.5588C35.5582 76.4604 35.8335 76.4094 36.1474 76.4094C36.2815 76.4094 36.4173 76.4185 36.555 76.4367C36.6945 76.455 36.8248 76.4823 36.946 76.5205L36.8468 77.1816C36.6174 77.0942 36.3732 77.0487 36.1144 77.0487C35.9363 77.0487 35.7821 77.0796 35.65 77.1434C35.5178 77.2053 35.4095 77.2927 35.3232 77.402C35.2369 77.5131 35.1709 77.6442 35.1286 77.799C35.0864 77.9538 35.0644 78.1214 35.0644 78.2999C35.0644 78.7042 35.1507 79.0138 35.3251 79.2305C35.4994 79.4473 35.7766 79.5547 36.1585 79.5547C36.2741 79.5547 36.3971 79.5401 36.5274 79.5128C36.6596 79.4855 36.7734 79.4473 36.8689 79.3999L36.979 80.0337C36.8377 80.0847 36.6853 80.1266 36.5183 80.1575L36.5164 80.1612Z" fill="#8C9091"/>
<path d="M38.383 76.5933C38.383 76.7116 38.3389 76.81 38.2526 76.8938C38.1664 76.9757 38.0617 77.0176 37.9387 77.0176C37.8157 77.0176 37.7129 76.9757 37.6285 76.8938C37.5441 76.8118 37.5 76.7116 37.5 76.5933C37.5 76.4749 37.5422 76.3747 37.6285 76.2891C37.7148 76.2035 37.8176 76.1616 37.9387 76.1616C38.0599 76.1616 38.1664 76.2035 38.2526 76.2855C38.3389 76.3674 38.383 76.4694 38.383 76.5914V76.5933ZM37.5826 80.1647V77.4256H38.293V80.1647H37.5826Z" fill="#8C9091"/>
<path d="M40.2933 80.1977C40.185 80.2122 40.084 80.2195 39.9886 80.2195C39.8362 80.2195 39.7096 80.205 39.6049 80.1758C39.5021 80.1467 39.4195 80.0975 39.3571 80.0301C39.2965 79.9627 39.2525 79.8735 39.2268 79.766C39.2011 79.6568 39.1882 79.522 39.1882 79.3617V77.9721H38.7109V77.4276H39.1882V76.5843L39.8931 76.3967V77.4276H40.565V77.9721H39.8931V79.1741C39.8931 79.3508 39.917 79.4692 39.9647 79.5329C40.0124 79.5948 40.0987 79.6276 40.2199 79.6276C40.341 79.6276 40.4475 79.6149 40.5356 79.5894L40.5852 80.1467C40.4971 80.1685 40.3979 80.1867 40.2915 80.2013L40.2933 80.1977Z" fill="#8C9091"/>
<path d="M41.9455 76.5933C41.9455 76.7116 41.9014 76.81 41.8151 76.8938C41.7289 76.9757 41.6242 77.0176 41.5012 77.0176C41.3782 77.0176 41.2754 76.9757 41.191 76.8938C41.1066 76.8118 41.0625 76.7116 41.0625 76.5933C41.0625 76.4749 41.1047 76.3747 41.191 76.2891C41.2754 76.2053 41.3801 76.1616 41.5012 76.1616C41.6224 76.1616 41.7289 76.2035 41.8151 76.2855C41.9014 76.3674 41.9455 76.4694 41.9455 76.5914V76.5933ZM41.1451 80.1647V77.4256H41.8555V80.1647H41.1451Z" fill="#8C9091"/>
<path d="M44.8819 78.533C44.8819 78.584 44.8801 78.6478 44.8764 78.7224C44.8728 78.7971 44.8654 78.8663 44.8544 78.9282H43.149C43.149 79.1705 43.2096 79.3544 43.3289 79.4801C43.4501 79.6057 43.6428 79.6677 43.909 79.6677C44.1752 79.6677 44.4414 79.6148 44.7094 79.5074L44.7865 80.041C44.6341 80.0957 44.4726 80.1394 44.3 80.1703C44.1275 80.2013 43.9568 80.2177 43.786 80.2177C43.3491 80.2177 43.0132 80.1048 42.7782 79.8808C42.5433 79.6567 42.4258 79.3016 42.4258 78.8171C42.4258 78.6113 42.4552 78.4201 42.5139 78.2435C42.5726 78.0668 42.6589 77.9138 42.7727 77.7827C42.8865 77.6516 43.0224 77.5496 43.1839 77.4767C43.3455 77.4039 43.529 77.3674 43.7365 77.3674C43.9439 77.3674 44.1091 77.3984 44.2523 77.4585C44.3973 77.5186 44.5148 77.6024 44.6084 77.7062C44.7002 77.81 44.77 77.9338 44.814 78.0759C44.8581 78.218 44.8801 78.3691 44.8801 78.5312L44.8819 78.533ZM44.177 78.462C44.1844 78.2744 44.144 78.1324 44.0577 78.0358C43.9714 77.9375 43.8521 77.8901 43.6998 77.8901C43.5474 77.8901 43.4281 77.9411 43.3308 78.0413C43.2335 78.1433 43.1747 78.2835 43.1564 78.4638H44.1789L44.177 78.462Z" fill="#8C9091"/>
<path d="M47.1909 79.3106C47.1909 79.4471 47.1615 79.571 47.1046 79.6821C47.0477 79.7932 46.9651 79.8897 46.8568 79.968C46.7485 80.0463 46.62 80.1083 46.4713 80.152C46.3208 80.1957 46.1556 80.2175 45.9738 80.2175C45.8655 80.2175 45.759 80.2121 45.6526 80.2011C45.5443 80.1902 45.447 80.172 45.3589 80.1465L45.4084 79.5564C45.4929 79.5928 45.5865 79.6202 45.6893 79.6384C45.7902 79.6566 45.893 79.6657 45.9977 79.6657C46.1317 79.6657 46.2382 79.6384 46.3189 79.5856C46.3997 79.5327 46.4419 79.4599 46.4419 79.3688C46.4419 79.2887 46.4144 79.225 46.3593 79.1812C46.3042 79.1375 46.2345 79.0993 46.1519 79.0683C46.0693 79.0374 45.9793 79.0046 45.882 78.9718C45.7866 78.939 45.6966 78.8935 45.6122 78.837C45.5296 78.7806 45.4598 78.7041 45.4029 78.6112C45.3478 78.5183 45.3203 78.3945 45.3203 78.2397C45.3203 78.1176 45.3442 78.0047 45.3901 77.8973C45.436 77.7916 45.5094 77.6987 45.6067 77.6186C45.704 77.5403 45.827 77.4766 45.9738 77.431C46.1207 77.3855 46.2932 77.3618 46.4933 77.3618C46.5704 77.3618 46.6549 77.3673 46.743 77.3764C46.8311 77.3855 46.9155 77.4001 46.9926 77.4183L46.9596 77.9701C46.8862 77.9483 46.8054 77.93 46.7173 77.9173C46.631 77.9046 46.5447 77.8973 46.4584 77.8973C46.3171 77.8973 46.2143 77.9228 46.15 77.9738C46.0858 78.0248 46.0528 78.094 46.0528 78.1777C46.0528 78.2542 46.0803 78.3162 46.1354 78.3599C46.1904 78.4036 46.262 78.4418 46.3465 78.4746C46.4309 78.5074 46.5227 78.542 46.6218 78.5766C46.7209 78.6112 46.8109 78.6585 46.8972 78.7168C46.9816 78.7751 47.0532 78.8516 47.1083 78.9427C47.1634 79.0337 47.1909 79.1557 47.1909 79.3069V79.3106Z" fill="#8C9091"/>
<path d="M49.0078 80.1649V76.4441H49.7292V80.1649H49.0078Z" fill="#6ABF4B"/>
<path d="M52.1946 80.1648V78.4127C52.1946 78.2725 52.1707 78.1632 52.123 78.0812C52.0753 78.0011 51.9835 77.9592 51.8513 77.9592C51.7632 77.9592 51.6787 77.9829 51.6016 78.0303C51.5245 78.0776 51.4566 78.1414 51.3997 78.2197C51.3428 78.298 51.2969 78.3909 51.2639 78.4983C51.2308 78.6058 51.2143 78.7187 51.2143 78.8407V80.1629H50.5039V77.4238H51.1758C51.1758 77.4857 51.1739 77.5658 51.1666 77.6605C51.1611 77.7571 51.1501 77.8408 51.1354 77.9137H51.1409C51.2253 77.7516 51.3465 77.6205 51.5044 77.5203C51.6622 77.4201 51.8531 77.3691 52.0789 77.3691C52.235 77.3691 52.3653 77.3928 52.4699 77.4383C52.5746 77.4839 52.659 77.5476 52.7233 77.6259C52.7857 77.7043 52.8316 77.7971 52.8591 77.9009C52.8866 78.0048 52.9013 78.1195 52.9013 78.2397V80.1629H52.1964L52.1946 80.1648Z" fill="#6ABF4B"/>
<path d="M55.0396 80.1649H54.1951L53.2461 77.4258H54.0134L54.4577 78.748C54.498 78.8773 54.5329 78.9957 54.5605 79.1032C54.588 79.2106 54.6137 79.3217 54.6357 79.431H54.6467C54.6688 79.3235 54.6926 79.2179 54.7183 79.1086C54.744 78.9993 54.7752 78.881 54.8119 78.7535L55.2452 77.4258H55.996L55.0414 80.1649H55.0396Z" fill="#6ABF4B"/>
<path d="M58.5733 78.533C58.5733 78.584 58.5715 78.6478 58.5678 78.7224C58.5642 78.7971 58.5568 78.8663 58.5458 78.9282H56.8405C56.8405 79.1705 56.901 79.3544 57.0203 79.4801C57.1415 79.6057 57.3343 79.6677 57.6004 79.6677C57.8666 79.6677 58.1328 79.6148 58.4008 79.5074L58.4779 80.041C58.3255 80.0957 58.164 80.1394 57.9914 80.1703C57.8189 80.2013 57.6482 80.2177 57.4774 80.2177C57.0405 80.2177 56.7046 80.1048 56.4696 79.8808C56.2347 79.6567 56.1172 79.3016 56.1172 78.8171C56.1172 78.6113 56.1466 78.4201 56.2053 78.2435C56.264 78.0668 56.3503 77.9138 56.4641 77.7827C56.5779 77.6516 56.7138 77.5496 56.8753 77.4767C57.0369 77.4039 57.2204 77.3674 57.4279 77.3674C57.6353 77.3674 57.8005 77.3984 57.9437 77.4585C58.0887 77.5186 58.2062 77.6024 58.2998 77.7062C58.3916 77.81 58.4614 77.9338 58.5054 78.0759C58.5495 78.218 58.5715 78.3691 58.5715 78.5312L58.5733 78.533ZM57.8684 78.462C57.8758 78.2744 57.8354 78.1324 57.7491 78.0358C57.6628 77.9375 57.5435 77.8901 57.3912 77.8901C57.2388 77.8901 57.1195 77.9411 57.0222 78.0413C56.9249 78.1433 56.8661 78.2835 56.8478 78.4638H57.8703L57.8684 78.462Z" fill="#6ABF4B"/>
<path d="M60.8862 79.3106C60.8862 79.4471 60.8568 79.571 60.7999 79.6821C60.743 79.7932 60.6604 79.8897 60.5521 79.968C60.4438 80.0463 60.3153 80.1083 60.1666 80.152C60.0161 80.1957 59.8509 80.2175 59.6691 80.2175C59.5608 80.2175 59.4544 80.2121 59.3479 80.2011C59.2396 80.1902 59.1423 80.172 59.0542 80.1465L59.1037 79.5564C59.1882 79.5928 59.2818 79.6202 59.3846 79.6384C59.4856 79.6566 59.5884 79.6657 59.693 79.6657C59.827 79.6657 59.9335 79.6384 60.0142 79.5856C60.095 79.5327 60.1372 79.4599 60.1372 79.3688C60.1372 79.2887 60.1097 79.225 60.0546 79.1812C59.9996 79.1375 59.9298 79.0993 59.8472 79.0683C59.7646 79.0374 59.6746 79.0046 59.5773 78.9718C59.4819 78.939 59.3919 78.8935 59.3075 78.837C59.2249 78.7806 59.1551 78.7041 59.0982 78.6112C59.0432 78.5183 59.0156 78.3945 59.0156 78.2397C59.0156 78.1176 59.0395 78.0047 59.0854 77.8973C59.1313 77.7916 59.2047 77.6987 59.302 77.6186C59.3993 77.5403 59.5223 77.4766 59.6691 77.431C59.816 77.3855 59.9885 77.3618 60.1886 77.3618C60.2657 77.3618 60.3502 77.3673 60.4383 77.3764C60.5264 77.3855 60.6108 77.4001 60.6879 77.4183L60.6549 77.9701C60.5815 77.9483 60.5007 77.93 60.4126 77.9173C60.3263 77.9046 60.24 77.8973 60.1538 77.8973C60.0124 77.8973 59.9096 77.9228 59.8454 77.9738C59.7811 78.0248 59.7481 78.094 59.7481 78.1777C59.7481 78.2542 59.7756 78.3162 59.8307 78.3599C59.8857 78.4036 59.9573 78.4418 60.0418 78.4746C60.1262 78.5074 60.218 78.542 60.3171 78.5766C60.4163 78.6112 60.5062 78.6585 60.5925 78.7168C60.6769 78.7751 60.7485 78.8516 60.8036 78.9427C60.8587 79.0337 60.8862 79.1557 60.8862 79.3069V79.3106Z" fill="#6ABF4B"/>
<path d="M62.7191 80.1977C62.6108 80.2122 62.5098 80.2195 62.4144 80.2195C62.262 80.2195 62.1353 80.205 62.0307 80.1758C61.9279 80.1467 61.8453 80.0975 61.7829 80.0301C61.7205 79.9627 61.6782 79.8735 61.6525 79.766C61.6268 79.6586 61.614 79.522 61.614 79.3617V77.9721H61.1367V77.4276H61.614V76.5843L62.3189 76.3967V77.4276H62.9908V77.9721H62.3189V79.1741C62.3189 79.3508 62.3428 79.4692 62.3905 79.5329C62.4382 79.5948 62.5245 79.6276 62.6457 79.6276C62.7668 79.6276 62.8733 79.6149 62.9614 79.5894L63.011 80.1467C62.9228 80.1685 62.8237 80.1867 62.7172 80.2013L62.7191 80.1977Z" fill="#6ABF4B"/>
<path d="M66.9003 80.1648V78.4346C66.9003 78.287 66.8782 78.1723 66.8342 78.0867C66.7901 78.0029 66.702 77.9592 66.5735 77.9592C66.4964 77.9592 66.4193 77.9811 66.3422 78.023C66.2669 78.0649 66.199 78.125 66.1403 78.2051C66.0815 78.2834 66.032 78.3781 65.9953 78.4892C65.9586 78.6003 65.9402 78.7205 65.9402 78.8535V80.1648H65.2408V78.4291C65.2408 78.2925 65.2206 78.1814 65.1802 78.0922C65.1398 78.0048 65.0499 77.9592 64.914 77.9592C64.8333 77.9592 64.7543 77.9811 64.6772 78.0248C64.602 78.0685 64.5341 78.1322 64.4753 78.2124C64.4166 78.2925 64.3688 78.3872 64.334 78.4965C64.2991 78.6058 64.2807 78.7241 64.2807 78.8516V80.1629H63.5703V77.4238H64.2422C64.2422 77.4857 64.2403 77.564 64.233 77.6587C64.2275 77.7534 64.2183 77.8372 64.2073 77.9155L64.2128 77.921C64.2972 77.7516 64.4184 77.6187 64.5763 77.5185C64.7341 77.4201 64.9159 77.3691 65.1233 77.3691C65.2463 77.3691 65.3509 77.3855 65.4391 77.4165C65.5272 77.4475 65.6024 77.4893 65.6612 77.544C65.7199 77.5986 65.7676 77.6569 65.8025 77.7206C65.8374 77.7844 65.8649 77.8499 65.8833 77.9155C65.9163 77.8499 65.9604 77.7844 66.0136 77.7206C66.0669 77.6569 66.1311 77.5968 66.2045 77.544C66.278 77.4912 66.3642 77.4475 66.4597 77.4165C66.5552 77.3855 66.6635 77.3691 66.7809 77.3691C67.0471 77.3691 67.2527 77.442 67.3941 77.5895C67.5373 77.737 67.607 77.9665 67.607 78.2779V80.1629H66.8966L66.9003 80.1648Z" fill="#6ABF4B"/>
<path d="M70.6398 78.533C70.6398 78.584 70.6379 78.6478 70.6342 78.7224C70.6306 78.7971 70.6232 78.8663 70.6122 78.9282H68.9069C68.9069 79.1705 68.9674 79.3544 69.0868 79.4801C69.2079 79.6057 69.4007 79.6677 69.6668 79.6677C69.933 79.6677 70.1992 79.6148 70.4672 79.5074L70.5443 80.041C70.3919 80.0957 70.2304 80.1394 70.0578 80.1703C69.8853 80.2013 69.7146 80.2177 69.5438 80.2177C69.1069 80.2177 68.771 80.1048 68.536 79.8808C68.3011 79.6567 68.1836 79.3016 68.1836 78.8171C68.1836 78.6113 68.213 78.4201 68.2717 78.2435C68.3305 78.0668 68.4167 77.9138 68.5305 77.7827C68.6444 77.6516 68.7802 77.5496 68.9417 77.4767C69.1033 77.4039 69.2868 77.3674 69.4943 77.3674C69.7017 77.3674 69.8669 77.3984 70.0101 77.4585C70.1551 77.5186 70.2726 77.6024 70.3662 77.7062C70.4599 77.81 70.5278 77.9338 70.5718 78.0759C70.6159 78.218 70.6379 78.3691 70.6379 78.5312L70.6398 78.533ZM69.9348 78.462C69.9422 78.2744 69.9018 78.1324 69.8155 78.0358C69.7293 77.9375 69.6099 77.8901 69.4576 77.8901C69.3052 77.8901 69.1859 77.9411 69.0886 78.0413C68.9913 78.1433 68.9326 78.2835 68.9142 78.4638H69.9367L69.9348 78.462Z" fill="#6ABF4B"/>
<path d="M72.925 80.1648V78.4127C72.925 78.2725 72.9012 78.1632 72.8535 78.0812C72.8057 78.0011 72.7139 77.9592 72.5818 77.9592C72.4937 77.9592 72.4092 77.9829 72.3321 78.0303C72.255 78.0776 72.1871 78.1414 72.1302 78.2197C72.0733 78.298 72.0274 78.3909 71.9944 78.4983C71.9613 78.6058 71.9448 78.7187 71.9448 78.8407V80.1629H71.2344V77.4238H71.9062C71.9062 77.4857 71.9044 77.5658 71.8971 77.6605C71.8916 77.7571 71.8805 77.8408 71.8659 77.9137H71.8714C71.9558 77.7516 72.077 77.6205 72.2348 77.5203C72.3927 77.4201 72.5836 77.3691 72.8094 77.3691C72.9654 77.3691 73.0958 77.3928 73.2004 77.4383C73.305 77.4839 73.3895 77.5476 73.4537 77.6259C73.5161 77.7043 73.562 77.7971 73.5896 77.9009C73.6171 78.0048 73.6318 78.1195 73.6318 78.2397V80.1629H72.9269L72.925 80.1648Z" fill="#6ABF4B"/>
<path d="M75.6058 80.1977C75.4975 80.2122 75.3965 80.2195 75.3011 80.2195C75.1487 80.2195 75.0221 80.205 74.9174 80.1758C74.8146 80.1467 74.732 80.0975 74.6696 80.0301C74.609 79.9627 74.565 79.8735 74.5393 79.766C74.5136 79.6586 74.5007 79.522 74.5007 79.3617V77.9721H74.0234V77.4276H74.5007V76.5843L75.2056 76.3967V77.4276H75.8775V77.9721H75.2056V79.1741C75.2056 79.3508 75.2295 79.4692 75.2772 79.5329C75.3249 79.5948 75.4112 79.6276 75.5324 79.6276C75.6535 79.6276 75.76 79.6149 75.8481 79.5894L75.8977 80.1467C75.8096 80.1685 75.7104 80.1867 75.604 80.2013L75.6058 80.1977Z" fill="#6ABF4B"/>
<path d="M80.4257 80.1595C80.2054 80.1996 79.9814 80.2196 79.7556 80.2196C79.4491 80.2196 79.1756 80.1777 78.9388 80.0921C78.702 80.0083 78.5037 79.8881 78.344 79.7315C78.1843 79.5749 78.065 79.3855 77.9824 79.1633C77.9016 78.9411 77.8594 78.6916 77.8594 78.4166C77.8594 78.1161 77.9053 77.8392 77.9952 77.5897C78.0852 77.3402 78.2173 77.1253 78.3917 76.9468C78.5661 76.7683 78.7827 76.6299 79.0416 76.5334C79.3004 76.4369 79.6014 76.3877 79.9411 76.3877C80.1375 76.3877 80.3247 76.4023 80.5046 76.4314C80.6845 76.4605 80.8497 76.4988 81.0021 76.5461L80.8571 77.2018C80.5689 77.0834 80.2476 77.0251 79.8952 77.0251C79.673 77.0251 79.4821 77.0597 79.3224 77.1271C79.1627 77.1945 79.0342 77.2892 78.9333 77.4076C78.8341 77.5278 78.7589 77.6644 78.7111 77.821C78.6634 77.9776 78.6395 78.1434 78.6395 78.32C78.6395 78.7171 78.7405 79.0249 78.9424 79.2434C79.1444 79.462 79.4417 79.5712 79.8346 79.5712C80.009 79.5712 80.1687 79.5494 80.3119 79.5057V78.2108H81.0333V79.9847C80.8442 80.0575 80.6404 80.1158 80.4202 80.1559L80.4257 80.1595Z" fill="#8C9091"/>
<path d="M83.2714 80.1647C83.2714 80.0846 83.2732 80.0044 83.2769 79.928C83.2806 79.8515 83.2879 79.775 83.2989 79.7021L83.2934 79.6967C83.2273 79.8515 83.1153 79.9771 82.9575 80.0737C82.7996 80.1702 82.6179 80.2193 82.4104 80.2193C82.159 80.2193 81.9644 80.1447 81.8267 79.9953C81.689 79.846 81.6211 79.6602 81.6211 79.4362C81.6211 79.2741 81.6596 79.1339 81.7349 79.0137C81.8102 78.8935 81.9185 78.7951 82.0562 78.7168C82.1957 78.6385 82.3627 78.5784 82.5591 78.5402C82.7556 78.5019 82.974 78.4819 83.2145 78.4819V78.3817C83.2145 78.216 83.1778 78.0958 83.1062 78.0175C83.0346 77.941 82.9061 77.9027 82.7207 77.9027C82.594 77.9027 82.4545 77.9209 82.3021 77.9574C82.1479 77.9938 82.0103 78.0375 81.8891 78.0903L81.7735 77.5494C81.9148 77.4948 82.0763 77.4492 82.2599 77.4146C82.4435 77.38 82.6289 77.3618 82.818 77.3618C83.0327 77.3618 83.2108 77.3837 83.354 77.4256C83.4972 77.4674 83.611 77.5294 83.6954 77.6131C83.7799 77.6951 83.8404 77.7971 83.8753 77.9155C83.9102 78.0357 83.9286 78.1723 83.9286 78.3271V79.4562C83.9286 79.5655 83.9286 79.6839 83.9341 79.8059C83.9377 79.9298 83.9432 80.0482 83.9506 80.1611H83.2732L83.2714 80.1647ZM83.2163 78.9463C83.0382 78.9463 82.8896 78.9572 82.7721 78.9773C82.6528 78.9973 82.5591 79.0264 82.4912 79.0629C82.4233 79.0993 82.3737 79.143 82.3462 79.1958C82.3187 79.2486 82.304 79.3033 82.304 79.3615C82.304 79.449 82.3333 79.5255 82.3921 79.5874C82.4508 79.6493 82.5334 79.6821 82.6362 79.6821C82.7207 79.6821 82.7996 79.6621 82.873 79.6238C82.9465 79.5856 83.007 79.5364 83.0566 79.4745C83.1062 79.4144 83.1447 79.3433 83.1741 79.265C83.2016 79.1867 83.2163 79.1047 83.2163 79.0192V78.9481V78.9463Z" fill="#8C9091"/>
<path d="M85.8871 80.1977C85.7787 80.2122 85.6778 80.2195 85.5823 80.2195C85.43 80.2195 85.3033 80.205 85.1987 80.1758C85.0959 80.1467 85.0133 80.0975 84.9509 80.0301C84.8884 79.9627 84.8462 79.8735 84.8205 79.766C84.7948 79.6568 84.782 79.522 84.782 79.3617V77.9721H84.3047V77.4276H84.782V76.5843L85.4869 76.3967V77.4276H86.1587V77.9721H85.4869V79.1741C85.4869 79.3508 85.5107 79.4692 85.5585 79.5329C85.6062 79.5948 85.6925 79.6276 85.8136 79.6276C85.9348 79.6276 86.0413 79.6149 86.1294 79.5894L86.1789 80.1467C86.0908 80.1685 85.9917 80.1867 85.8852 80.2013L85.8871 80.1977Z" fill="#8C9091"/>
<path d="M88.9991 78.533C88.9991 78.584 88.9973 78.6478 88.9936 78.7224C88.9899 78.7971 88.9826 78.8663 88.9716 78.9282H87.2662C87.2662 79.1705 87.3268 79.3544 87.4461 79.4801C87.5673 79.6057 87.76 79.6677 88.0262 79.6677C88.2924 79.6677 88.5586 79.6148 88.8266 79.5074L88.9037 80.041C88.7513 80.0957 88.5898 80.1394 88.4172 80.1703C88.2447 80.2013 88.0739 80.2177 87.9032 80.2177C87.4663 80.2177 87.1304 80.1048 86.8954 79.8808C86.6605 79.6567 86.543 79.3016 86.543 78.8171C86.543 78.6113 86.5723 78.4201 86.6311 78.2435C86.6898 78.0668 86.7761 77.9138 86.8899 77.7827C87.0037 77.6516 87.1396 77.5496 87.3011 77.4767C87.4626 77.4039 87.6462 77.3674 87.8537 77.3674C88.0611 77.3674 88.2263 77.3984 88.3695 77.4585C88.5145 77.5186 88.632 77.6024 88.7256 77.7062C88.8192 77.81 88.8871 77.9338 88.9312 78.0759C88.9753 78.218 88.9973 78.3691 88.9973 78.5312L88.9991 78.533ZM88.2942 78.462C88.3016 78.2744 88.2612 78.1324 88.1749 78.0358C88.0886 77.9375 87.9693 77.8901 87.8169 77.8901C87.6646 77.8901 87.5453 77.9411 87.448 78.0413C87.3507 78.1433 87.2919 78.2835 87.2736 78.4638H88.2961L88.2942 78.462Z" fill="#8C9091"/>
</g>
<defs>
<linearGradient id="paint0_linear_122_1702" x1="-0.572694" y1="12.573" x2="89.8059" y2="12.573" gradientUnits="userSpaceOnUse">
<stop stop-color="#007C7B"/>
<stop offset="1" stop-color="#6ABF4B"/>
</linearGradient>
<clipPath id="clip0_122_1702">
<rect width="89" height="80" fill="white" transform="translate(0 0.536377)"/>
</clipPath>
</defs>
</svg>
